<?xml version="1.0" encoding="UTF-8" standalone="no"?>
<!DOCTYPE svg PUBLIC "-//W3C//DTD SVG 1.1//EN" "http://www.w3.org/Graphics/SVG/1.1/DTD/svg11.dtd">
<svg version="1.1" xmlns="http://www.w3.org/2000/svg" xmlns:xlink="http://www.w3.org/1999/xlink" preserveAspectRatio="xMidYMid meet" viewBox="0 0 640 640" width="1583" height="1583"><defs><path d="M0 71.11C5.33 71.11 8.3 71.11 8.89 71.11C17.78 71.11 35.56 71.11 53.33 78.22C71.11 85.33 88.89 99.56 106.67 92.44C124.44 85.33 142.22 56.89 160 49.78C177.78 42.67 195.56 56.89 213.33 66.36C231.11 76 248.89 80.44 266.67 82.98C284.44 85.33 302.22 85.33 320 80.58C337.78 76 355.56 66.22 373.33 73.47C391.11 80.44 408.89 104.44 426.67 111.42C444.44 118.67 462.22 108.89 480 109.02C497.78 108.89 515.56 118.67 533.33 118.53C551.11 118.67 568.89 108.89 586.67 109.02C604.44 108.89 622.22 118.67 631.11 123.24C631.7 123.56 634.67 125.15 640 128L640 0C634.67 0 631.7 0 631.11 0C622.22 0 604.44 0 586.67 0C568.89 0 551.11 0 533.33 0C515.56 0 497.78 0 480 0C462.22 0 444.44 0 426.67 0C408.89 0 391.11 0 373.33 0C355.56 0 337.78 0 320 0C302.22 0 284.44 0 266.67 0C248.89 0 231.11 0 213.33 0C195.56 0 177.78 0 160 0C142.22 0 124.44 0 106.67 0C88.89 0 71.11 0 53.33 0C35.56 0 17.78 0 8.89 0C8.3 0 5.33 0 0 0L0 71.11Z" id="b1jefhllTv"></path></defs><g><g><g><g><filter id="shadow11849993" x="-27" y="-27" width="695" height="183" filterUnits="userSpaceOnUse" primitiveUnits="userSpaceOnUse"><feFlood></feFlood><feComposite in2="SourceAlpha" operator="in"></feComposite><feGaussianBlur stdDeviation="3.16"></feGaussianBlur><feOffset dx="1" dy="1" result="afterOffset"></feOffset><feFlood flood-color="#8a2be2" flood-opacity="0.5"></feFlood><feComposite in2="afterOffset" operator="in"></feComposite><feMorphology operator="dilate" radius="1"></feMorphology><feComposite in2="SourceAlpha" operator="out"></feComposite></filter><path d="M0 71.11C5.33 71.11 8.3 71.11 8.89 71.11C17.78 71.11 35.56 71.11 53.33 78.22C71.11 85.33 88.89 99.56 106.67 92.44C124.44 85.33 142.22 56.89 160 49.78C177.78 42.67 195.56 56.89 213.33 66.36C231.11 76 248.89 80.44 266.67 82.98C284.44 85.33 302.22 85.33 320 80.58C337.78 76 355.56 66.22 373.33 73.47C391.11 80.44 408.89 104.44 426.67 111.42C444.44 118.67 462.22 108.89 480 109.02C497.78 108.89 515.56 118.67 533.33 118.53C551.11 118.67 568.89 108.89 586.67 109.02C604.44 108.89 622.22 118.67 631.11 123.24C631.7 123.56 634.67 125.15 640 128L640 0C634.67 0 631.7 0 631.11 0C622.22 0 604.44 0 586.67 0C568.89 0 551.11 0 533.33 0C515.56 0 497.78 0 480 0C462.22 0 444.44 0 426.67 0C408.89 0 391.11 0 373.33 0C355.56 0 337.78 0 320 0C302.22 0 284.44 0 266.67 0C248.89 0 231.11 0 213.33 0C195.56 0 177.78 0 160 0C142.22 0 124.44 0 106.67 0C88.89 0 71.11 0 53.33 0C35.56 0 17.78 0 8.89 0C8.3 0 5.33 0 0 0L0 71.11Z" id="g1s0FgTqVb" fill="white" fill-opacity="1" filter="url(#shadow11849993)"></path></g><use xlink:href="#b1jefhllTv" opacity="1" fill="#8a2be2" fill-opacity="1"></use><g><use xlink:href="#b1jefhllTv" opacity="1" fill-opacity="0" stroke="#000000" stroke-width="1" stroke-opacity="0"></use></g></g></g></g></svg>