<?xml version="1.0" encoding="UTF-8" standalone="no"?>
<!DOCTYPE svg PUBLIC "-//W3C//DTD SVG 1.1//EN" "http://www.w3.org/Graphics/SVG/1.1/DTD/svg11.dtd">
<svg version="1.1" xmlns="http://www.w3.org/2000/svg" xmlns:xlink="http://www.w3.org/1999/xlink" preserveAspectRatio="xMidYMid meet" viewBox="0 0 640 640" width="640" height="640"><defs><path d="M312 296C320.81 296.07 327.93 303.19 328 312C327.97 320.83 320.83 327.97 312 328C300.8 328 211.2 328 200 328C191.19 327.93 184.07 320.81 184 312C184.03 303.17 191.17 296.03 200 296C222.4 296 289.6 296 312 296Z" id="c1tQ1pGTCE"></path><path d="M304 296L208 296L213.36 264L216 248L296 248L298.64 264L304 296Z" id="bVa8J5Mu0"></path><path d="M88 200L424 200C424 219.2 424 229.87 424 232C423.97 240.83 416.83 247.97 408 248C377.6 248 134.4 248 104 248C95.17 247.97 88.03 240.83 88 232C88 227.73 88 217.07 88 200Z" id="e4TTRqLx8"></path><path d="M424 200L88 200C88 104 88 50.67 88 40C88.03 31.17 95.17 24.03 104 24C134.4 24 377.6 24 408 24C416.83 24.03 423.97 31.17 424 40C424 61.33 424 114.67 424 200Z" id="f1G3ELDwXC"></path><path d="M298.64 264L213.36 264L216 248L296 248L298.64 264Z" id="b36wxN9sIK"></path><path d="M368 216L384 216L384 232L368 232L368 216Z" id="b2nrqEOJF2"></path><path d="M170.34 125.66C155.94 111.26 147.94 103.26 146.34 101.66C143.22 98.53 143.22 93.47 146.34 90.34C147.94 88.74 155.94 80.74 170.34 66.34L181.66 77.66L163.31 96L181.66 114.34L170.34 125.66Z" id="cwjwpwrM4"></path><path d="M245.66 125.66L234.34 114.34L252.69 96L234.34 77.66L245.66 66.34C260.06 80.74 268.06 88.74 269.66 90.34C272.78 93.47 272.78 98.53 269.66 101.66C266.46 104.86 258.46 112.86 245.66 125.66Z" id="e2tQDcPeoJ"></path><path d="M192.22 126.05L208.26 62.06L223.78 65.95L207.74 129.94L192.22 126.05Z" id="f1vEGcGUrZ"></path><path d="M288 112L368 112L368 128L288 128L288 112Z" id="bOuJJyu2u"></path><path d="M288 80L304 80L304 96L288 96L288 80Z" id="a3rpKVJLL"></path><path d="M320 80L368 80L368 96L320 96L320 80Z" id="n7juBeryF4"></path><path d="M272 144L368 144L368 160L272 160L272 144Z" id="b2AcKAi1jD"></path><path d="M208 144L256 144L256 160L208 160L208 144Z" id="e1w5eVM6"></path><path d="M176 144L192 144L192 160L176 160L176 144Z" id="b19Bon4tTq"></path></defs><g><g><g><use xlink:href="#c1tQ1pGTCE" opacity="1" fill="#acabb1" fill-opacity="1"></use><g><use xlink:href="#c1tQ1pGTCE" opacity="1" fill-opacity="0" stroke="#000000" stroke-width="1" stroke-opacity="0"></use></g></g><g><use xlink:href="#bVa8J5Mu0" opacity="1" fill="#c6c5ca" fill-opacity="1"></use><g><use xlink:href="#bVa8J5Mu0" opacity="1" fill-opacity="0" stroke="#000000" stroke-width="1" stroke-opacity="0"></use></g></g><g><use xlink:href="#e4TTRqLx8" opacity="1" fill="#c6c5ca" fill-opacity="1"></use><g><use xlink:href="#e4TTRqLx8" opacity="1" fill-opacity="0" stroke="#000000" stroke-width="1" stroke-opacity="0"></use></g></g><g><use xlink:href="#f1G3ELDwXC" opacity="1" fill="#ab89d7" fill-opacity="1"></use><g><use xlink:href="#f1G3ELDwXC" opacity="1" fill-opacity="0" stroke="#000000" stroke-width="1" stroke-opacity="0"></use></g></g><g><use xlink:href="#b36wxN9sIK" opacity="1" fill="#acabb1" fill-opacity="1"></use><g><use xlink:href="#b36wxN9sIK" opacity="1" fill-opacity="0" stroke="#000000" stroke-width="1" stroke-opacity="0"></use></g></g><g><use xlink:href="#b2nrqEOJF2" opacity="1" fill="#433948" fill-opacity="1"></use><g><use xlink:href="#b2nrqEOJF2" opacity="1" fill-opacity="0" stroke="#000000" stroke-width="1" stroke-opacity="0"></use></g></g><g><use xlink:href="#cwjwpwrM4" opacity="1" fill="#373738" fill-opacity="1"></use><g><use xlink:href="#cwjwpwrM4" opacity="1" fill-opacity="0" stroke="#000000" stroke-width="1" stroke-opacity="0"></use></g></g><g><use xlink:href="#e2tQDcPeoJ" opacity="1" fill="#373738" fill-opacity="1"></use><g><use xlink:href="#e2tQDcPeoJ" opacity="1" fill-opacity="0" stroke="#000000" stroke-width="1" stroke-opacity="0"></use></g></g><g><use xlink:href="#f1vEGcGUrZ" opacity="1" fill="#373738" fill-opacity="1"></use><g><use xlink:href="#f1vEGcGUrZ" opacity="1" fill-opacity="0" stroke="#000000" stroke-width="1" stroke-opacity="0"></use></g></g><g><use xlink:href="#bOuJJyu2u" opacity="1" fill="#373738" fill-opacity="1"></use><g><use xlink:href="#bOuJJyu2u" opacity="1" fill-opacity="0" stroke="#000000" stroke-width="1" stroke-opacity="0"></use></g></g><g><use xlink:href="#a3rpKVJLL" opacity="1" fill="#373738" fill-opacity="1"></use><g><use xlink:href="#a3rpKVJLL" opacity="1" fill-opacity="0" stroke="#000000" stroke-width="1" stroke-opacity="0"></use></g></g><g><use xlink:href="#n7juBeryF4" opacity="1" fill="#373738" fill-opacity="1"></use><g><use xlink:href="#n7juBeryF4" opacity="1" fill-opacity="0" stroke="#000000" stroke-width="1" stroke-opacity="0"></use></g></g><g><use xlink:href="#b2AcKAi1jD" opacity="1" fill="#373738" fill-opacity="1"></use><g><use xlink:href="#b2AcKAi1jD" opacity="1" fill-opacity="0" stroke="#000000" stroke-width="1" stroke-opacity="0"></use></g></g><g><use xlink:href="#e1w5eVM6" opacity="1" fill="#373738" fill-opacity="1"></use><g><use xlink:href="#e1w5eVM6" opacity="1" fill-opacity="0" stroke="#000000" stroke-width="1" stroke-opacity="0"></use></g></g><g><use xlink:href="#b19Bon4tTq" opacity="1" fill="#373738" fill-opacity="1"></use><g><use xlink:href="#b19Bon4tTq" opacity="1" fill-opacity="0" stroke="#000000" stroke-width="1" stroke-opacity="0"></use></g></g></g></g></svg>