<svg height="512" viewBox="0 0 64 64" width="512" xmlns="http://www.w3.org/2000/svg"><g id="Coding-Programming-Monitor-Computer-Software"><path d="m50 47v12h-36v-12a2.006 2.006 0 0 1 2-2h32a2.006 2.006 0 0 1 2 2z" fill="#3d9ae2"/><path d="m44 52a2.006 2.006 0 0 1 2-2 2.015 2.015 0 0 1 2 2v1a2.006 2.006 0 0 1 2-2 2.015 2.015 0 0 1 2 2v1a2.006 2.006 0 0 1 2-2 2.015 2.015 0 0 1 2 2v8h-19.46l-1.73-3-.27-.46a2 2 0 0 1 .73-2.74 1.967 1.967 0 0 1 .99-.27 2 2 0 0 1 1.74 1.01l2 3.46v-8a2.006 2.006 0 0 1 2-2 2.015 2.015 0 0 1 2 2z" fill="#ffc477"/><path d="m14 51a2.006 2.006 0 0 1 2 2v-1a2.015 2.015 0 0 1 2-2 2.006 2.006 0 0 1 2 2 2.015 2.015 0 0 1 2-2 2.006 2.006 0 0 1 2 2v8l2-3.46a2 2 0 0 1 1.74-1.01 1.967 1.967 0 0 1 .99.27 2 2 0 0 1 .73 2.74l-.27.46-1.73 3h-19.46v-8a2.015 2.015 0 0 1 2-2 2.006 2.006 0 0 1 2 2v-1a2.015 2.015 0 0 1 2-2z" fill="#ffc477"/><path d="m39 37a2.015 2.015 0 0 1 2 2 2.006 2.006 0 0 1 -2 2h-14a2.015 2.015 0 0 1 -2-2 2.006 2.006 0 0 1 2-2z" fill="#acabb1"/><path d="m38 37h-12l.67-4 .33-2h10l.33 2z" fill="#c6c5ca"/><path d="m11 25h42v4a2.006 2.006 0 0 1 -2 2h-38a2.006 2.006 0 0 1 -2-2z" fill="#c6c5ca"/><path d="m53 5v20h-42v-20a2.006 2.006 0 0 1 2-2h38a2.006 2.006 0 0 1 2 2z" fill="#5aaae7"/><path d="m37.33 33h-10.66l.33-2h10z" fill="#acabb1"/><path d="m46 27h2v2h-2z" fill="#acabb1"/><g fill="#1e81ce"><path d="m29 52h2v2h-2z"/><path d="m33 52h2v2h-2z"/><path d="m37 52h2v2h-2z"/><path d="m25 52h2v2h-2z"/><path d="m45 48h2v2h-2z"/><path d="m41 48h2v2h-2z"/><path d="m37 48h2v2h-2z"/><path d="m33 48h2v2h-2z"/><path d="m17 48h2v2h-2z"/><path d="m21 48h2v2h-2z"/><path d="m25 48h2v2h-2z"/><path d="m29 48h2v2h-2z"/></g><path d="m46 45h-2v-2a3 3 0 0 1 3-3h4a1 1 0 0 0 0-2h-4a3 3 0 0 1 -3-3v-4h2v4a1 1 0 0 0 1 1h4a3 3 0 0 1 0 6h-4a1 1 0 0 0 -1 1z" fill="#d8d7da"/><path d="m21.293 15.707-3-3a1 1 0 0 1 0-1.414l3-3 1.414 1.414-2.293 2.293 2.293 2.293z" fill="#1e81ce"/><path d="m30.707 15.707-1.414-1.414 2.293-2.293-2.293-2.293 1.414-1.414 3 3a1 1 0 0 1 0 1.414z" fill="#1e81ce"/><path d="m21.877 11h8.246v2h-8.246z" fill="#1e81ce" transform="matrix(.243 -.97 .97 .243 8.05 34.311)"/><path d="m36 14h10v2h-10z" fill="#1e81ce"/><path d="m36 10h2v2h-2z" fill="#1e81ce"/><path d="m40 10h6v2h-6z" fill="#1e81ce"/><path d="m34 18h12v2h-12z" fill="#1e81ce"/><path d="m26 18h6v2h-6z" fill="#1e81ce"/><path d="m22 18h2v2h-2z" fill="#1e81ce"/><path d="m12 53a1 1 0 0 0 -1 1v3a1 1 0 0 0 2 0v-3a1 1 0 0 0 -1-1z" fill="#ffb655"/><path d="m16 52a1 1 0 0 0 -1 1v4a1 1 0 0 0 2 0v-4a1 1 0 0 0 -1-1z" fill="#ffb655"/><path d="m20 51a1 1 0 0 0 -1 1v5a1 1 0 0 0 2 0v-5a1 1 0 0 0 -1-1z" fill="#ffb655"/><path d="m52 53a1 1 0 0 1 1 1v3a1 1 0 0 1 -2 0v-3a1 1 0 0 1 1-1z" fill="#ffb655"/><path d="m48 52a1 1 0 0 1 1 1v4a1 1 0 0 1 -2 0v-4a1 1 0 0 1 1-1z" fill="#ffb655"/><path d="m44 51a1 1 0 0 1 1 1v5a1 1 0 0 1 -2 0v-5a1 1 0 0 1 1-1z" fill="#ffb655"/></g></svg>